<svg id="Capa_1" enable-background="new 0 0 502 502" height="512" viewBox="0 0 502 502" width="512" xmlns="http://www.w3.org/2000/svg"><circle cx="251" cy="257" fill="#fe5d6d" r="245"/><path d="m415.239 0h-318.478c-15.884 0-28.761 12.877-28.761 28.761v316.794 74.322c44.87 50.384 110.224 82.123 183 82.123 78.385 0 148.156-36.823 193-94.103v-24.995-354.141c0-15.884-12.877-28.761-28.761-28.761z" fill="#35528c"/><path d="m145 28.761c0-15.884 12.877-28.761 28.761-28.761h-77c-15.884 0-28.761 12.877-28.761 28.761v316.794 74.322c21.456 24.093 47.604 43.907 77 58.042v-132.365z" fill="#1f3a60"/><path d="m95 35v410.899c42.371 35.039 96.721 56.101 156 56.101 64.056 0 122.352-24.6 166-64.85v-402.15z" fill="#fff"/><circle cx="214.5" cy="214.5" fill="#cecece" r="30.5"/><path d="m95 35v410.899c15.226 12.592 32.007 23.366 50 32.019v-442.918z" fill="#cecece"/><path d="m456.49 390.438-30.679-69.424-6.221-14.078-24.193-54.746c-4.772-10.798-17.394-15.684-28.192-10.912-10.798 4.772-15.684 17.394-10.912 28.192-4.772-10.798-17.394-15.684-28.192-10.912s-15.684 17.394-10.912 28.192c-4.772-10.798-17.394-15.684-28.192-10.912s-15.684 17.394-10.912 28.192l-43.547-98.542c-4.772-10.798-17.394-15.684-28.192-10.912s-15.684 17.394-10.912 28.192l59.593 134.853c.865 1.958-1.576 3.695-3.142 2.235l-15.732-14.671c-15.286-14.255-39.234-13.418-53.488 1.868-1.848 1.982-1.74 5.087.242 6.936l102.477 95.562c11.524 10.747 20.75 23.719 27.119 38.131l2.577 5.831c58.882-15.913 108.969-53.219 141.41-103.075z" fill="#ffd3a4"/><g fill="#e5ac7f"><path d="m442.162 358.015c-33.754 50.213-83.659 88.643-142.286 107.86 4.97 6.777 9.212 14.083 12.626 21.809l2.577 5.831c58.882-15.915 108.97-53.222 141.411-103.077z"/><path d="m221.427 227.941c-6.261 2.767-13.648-.092-16.415-6.353l-1.388-3.141c-2.767-6.261.092-13.648 6.353-16.415 6.261-2.767 13.648.092 16.415 6.353l1.388 3.141c2.767 6.261-.092 13.648-6.353 16.415z"/><path d="m208.365 376.535c5.097-4.57 5.528-12.479.958-17.576l-2.292-2.556c-4.57-5.097-12.479-5.528-17.576-.958-.871.781-1.595 1.664-2.191 2.61l20.414 19.036c.232-.18.465-.358.687-.556z"/></g></svg>