<?xml version="1.0" encoding="iso-8859-1"?>
<!-- Generator: Adobe Illustrator 19.0.0, SVG Export Plug-In . SVG Version: 6.00 Build 0)  -->
<svg version="1.1" id="Layer_1" xmlns="http://www.w3.org/2000/svg" xmlns:xlink="http://www.w3.org/1999/xlink" x="0px" y="0px"
	 viewBox="0 0 473.654 473.654" style="enable-background:new 0 0 473.654 473.654;" xml:space="preserve">
<circle style="fill:#D62127;" cx="236.827" cy="236.827" r="236.827"/>
<path style="fill:#F18A89;" d="M115.373,182.525c18.324,17.628,36.883,28.716,59.082,12.288
	c22.344-16.525,24.707-34.872,24.707-34.872s-2.105-35.174,82.663,41.064c76.287,84.806,41.105,82.708,41.105,82.708
	s-18.346,2.367-34.875,24.707c-16.428,22.198-4.835,40.268,12.285,59.074c54.777,60.192,87.988-8.201,87.988-8.201
	c38.776-65.274-25.87-142.852-75.741-189.069c-46.221-49.86-123.757-114.45-189.002-75.678
	C123.585,94.548,54.329,123.795,115.373,182.525z"/>
<path style="fill:#404040;" d="M357.978,389.536c0.045-0.022,0.075-0.06,0.116-0.075c-0.497,0.198-0.995,0.389-1.496,0.568
	C357.058,389.866,357.526,389.712,357.978,389.536z"/>
<g>
	<path style="fill:#EC6C6D;" d="M183.434,354.287c-14.599-0.007-29.202-0.007-43.802-0.007c-7.932,0.007-14.566-6.623-14.566-14.569
		c0-14.558,0-29.135,0-43.701c0-18.806,29.135-18.814,29.135-0.007c0,14.577-0.007,29.142,0,43.708
		c-4.858-4.85-9.708-9.708-14.569-14.566c14.607,0.007,29.202,0.007,43.802,0.007C202.24,325.152,202.24,354.28,183.434,354.287
		L183.434,354.287z"/>
	<path style="fill:#EC6C6D;" d="M208.676,312.056c-10.351,0-20.699,0-31.042,0c-5.624,0-10.329-4.704-10.329-10.321
		c-0.007-10.336-0.007-20.661,0-30.99c0-13.317,20.646-13.317,20.646,0c0,10.336,0,20.669,0.007,30.997
		c-3.448-3.455-6.888-6.896-10.329-10.344c10.344,0.015,20.691,0,31.042,0.007C222.004,291.403,222.011,312.056,208.676,312.056
		L208.676,312.056z"/>
	<path style="fill:#EC6C6D;" d="M232.654,279.41c-8.175,0-16.353,0-24.528,0c-4.454,0-8.167-3.71-8.167-8.167
		c-0.007-8.16-0.007-16.316,0-24.483c0-10.527,16.316-10.527,16.316,0c0,8.167,0,16.331,0.007,24.49
		c-2.726-2.726-5.441-5.441-8.167-8.167c8.182,0.007,16.353,0,24.535,0C243.185,263.083,243.192,279.41,232.654,279.41
		L232.654,279.41z"/>
	<path style="fill:#EC6C6D;" d="M251.359,253.21c-6.305,0-12.599,0-18.904,0c-3.425,0-6.29-2.865-6.29-6.282c0-6.29,0-12.58,0-18.87
		c0-8.111,12.569-8.111,12.569,0c0.007,6.29,0.007,12.58,0.007,18.87c-2.098-2.105-4.192-4.2-6.29-6.29c6.305,0,12.599,0,18.904,0
		C259.467,240.638,259.474,253.21,251.359,253.21L251.359,253.21z"/>
</g>
<g>
</g>
<g>
</g>
<g>
</g>
<g>
</g>
<g>
</g>
<g>
</g>
<g>
</g>
<g>
</g>
<g>
</g>
<g>
</g>
<g>
</g>
<g>
</g>
<g>
</g>
<g>
</g>
<g>
</g>
</svg>
